<?xml version="1.0" encoding="utf-8"?>
<svg version="1.1" xmlns="http://www.w3.org/2000/svg" xmlns:xlink="http://www.w3.org/1999/xlink" x="0px" y="0px"
	 viewBox="0 0 480 480" style="enable-background:new 0 0 480 480;" xml:space="preserve">
<style type="text/css">
	.st0{display:none;}
	.st1{display:inline;}
	.st2{fill:#14D18C;}
	.st3{fill:#11B076;}
</style>
<g id="Logo" class="st0">
	<g class="st1">
		<g>
			<path class="st2" d="M356,381H124c-13.81,0-25-11.19-25-25V124c0-13.81,11.19-25,25-25h232c13.81,0,25,11.19,25,25v232
				C381,369.81,369.81,381,356,381z"/>
		</g>
		<g>
			<path class="st2" d="M114.69,82h-1.38C105.41,82,99,75.59,99,67.69V21.31C99,13.41,105.41,7,113.31,7h1.38
				c7.9,0,14.31,6.41,14.31,14.31v46.38C129,75.59,122.59,82,114.69,82z"/>
			<path class="st2" d="M366.69,82h-1.38c-7.9,0-14.31-6.41-14.31-14.31V21.31C351,13.41,357.41,7,365.31,7h1.38
				c7.9,0,14.31,6.41,14.31,14.31v46.38C381,75.59,374.59,82,366.69,82z"/>
			<path class="st2" d="M282.69,82h-1.38c-7.9,0-14.31-6.41-14.31-14.31V21.31C267,13.41,273.41,7,281.31,7h1.38
				c7.9,0,14.31,6.41,14.31,14.31v46.38C297,75.59,290.59,82,282.69,82z"/>
			<path class="st2" d="M198.69,82h-1.38c-7.9,0-14.31-6.41-14.31-14.31V21.31C183,13.41,189.41,7,197.31,7h1.38
				c7.9,0,14.31,6.41,14.31,14.31v46.38C213,75.59,206.59,82,198.69,82z"/>
		</g>
		<g>
			<path class="st2" d="M114.69,473h-1.38c-7.9,0-14.31-6.41-14.31-14.31v-46.38c0-7.9,6.41-14.31,14.31-14.31h1.38
				c7.9,0,14.31,6.41,14.31,14.31v46.38C129,466.59,122.59,473,114.69,473z"/>
			<path class="st2" d="M366.69,473h-1.38c-7.9,0-14.31-6.41-14.31-14.31v-46.38c0-7.9,6.41-14.31,14.31-14.31h1.38
				c7.9,0,14.31,6.41,14.31,14.31v46.38C381,466.59,374.59,473,366.69,473z"/>
			<path class="st2" d="M282.69,473h-1.38c-7.9,0-14.31-6.41-14.31-14.31v-46.38c0-7.9,6.41-14.31,14.31-14.31h1.38
				c7.9,0,14.31,6.41,14.31,14.31v46.38C297,466.59,290.59,473,282.69,473z"/>
			<path class="st2" d="M198.69,473h-1.38c-7.9,0-14.31-6.41-14.31-14.31v-46.38c0-7.9,6.41-14.31,14.31-14.31h1.38
				c7.9,0,14.31,6.41,14.31,14.31v46.38C213,466.59,206.59,473,198.69,473z"/>
		</g>
		<g>
			<path class="st2" d="M82,365.31v1.38c0,7.9-6.41,14.31-14.31,14.31H21.31C13.41,381,7,374.59,7,366.69v-1.38
				c0-7.9,6.41-14.31,14.31-14.31h46.38C75.59,351,82,357.41,82,365.31z"/>
			<path class="st2" d="M82,113.31v1.38c0,7.9-6.41,14.31-14.31,14.31H21.31C13.41,129,7,122.59,7,114.69v-1.38
				C7,105.41,13.41,99,21.31,99h46.38C75.59,99,82,105.41,82,113.31z"/>
			<path class="st2" d="M82,197.31v1.38c0,7.9-6.41,14.31-14.31,14.31H21.31C13.41,213,7,206.59,7,198.69v-1.38
				c0-7.9,6.41-14.31,14.31-14.31h46.38C75.59,183,82,189.41,82,197.31z"/>
			<path class="st2" d="M82,281.31v1.38c0,7.9-6.41,14.31-14.31,14.31H21.31C13.41,297,7,290.59,7,282.69v-1.38
				c0-7.9,6.41-14.31,14.31-14.31h46.38C75.59,267,82,273.41,82,281.31z"/>
		</g>
		<g>
			<path class="st2" d="M82,365.31v1.38c0,7.9-6.41,14.31-14.31,14.31H21.31C13.41,381,7,374.59,7,366.69v-1.38
				c0-7.9,6.41-14.31,14.31-14.31h46.38C75.59,351,82,357.41,82,365.31z"/>
			<path class="st2" d="M82,113.31v1.38c0,7.9-6.41,14.31-14.31,14.31H21.31C13.41,129,7,122.59,7,114.69v-1.38
				C7,105.41,13.41,99,21.31,99h46.38C75.59,99,82,105.41,82,113.31z"/>
			<path class="st2" d="M82,197.31v1.38c0,7.9-6.41,14.31-14.31,14.31H21.31C13.41,213,7,206.59,7,198.69v-1.38
				c0-7.9,6.41-14.31,14.31-14.31h46.38C75.59,183,82,189.41,82,197.31z"/>
			<path class="st2" d="M82,281.31v1.38c0,7.9-6.41,14.31-14.31,14.31H21.31C13.41,297,7,290.59,7,282.69v-1.38
				c0-7.9,6.41-14.31,14.31-14.31h46.38C75.59,267,82,273.41,82,281.31z"/>
		</g>
		<g>
			<path class="st2" d="M473,365.31v1.38c0,7.9-6.41,14.31-14.31,14.31h-46.38c-7.9,0-14.31-6.41-14.31-14.31v-1.38
				c0-7.9,6.41-14.31,14.31-14.31h46.38C466.59,351,473,357.41,473,365.31z"/>
			<path class="st2" d="M473,113.31v1.38c0,7.9-6.41,14.31-14.31,14.31h-46.38c-7.9,0-14.31-6.41-14.31-14.31v-1.38
				c0-7.9,6.41-14.31,14.31-14.31h46.38C466.59,99,473,105.41,473,113.31z"/>
			<path class="st2" d="M473,197.31v1.38c0,7.9-6.41,14.31-14.31,14.31h-46.38c-7.9,0-14.31-6.41-14.31-14.31v-1.38
				c0-7.9,6.41-14.31,14.31-14.31h46.38C466.59,183,473,189.41,473,197.31z"/>
			<path class="st2" d="M473,281.31v1.38c0,7.9-6.41,14.31-14.31,14.31h-46.38c-7.9,0-14.31-6.41-14.31-14.31v-1.38
				c0-7.9,6.41-14.31,14.31-14.31h46.38C466.59,267,473,273.41,473,281.31z"/>
		</g>
	</g>
</g>
<g id="Shadow" class="st0">
	<path class="st3" d="M556.08-75.72C345.36,134.76,134.64,345.24-76.08,555.72c231.2,0,462.4,0,693.6,0c0-226.39,0-452.79,0-679.18
		C597.04-107.55,576.56-91.63,556.08-75.72z"/>
	<g class="st1">
		<g>
			<path class="st3" d="M458.69,99h-46.38c-7.9,0-14.31,6.41-14.31,14.31v1.38c0,7.9,6.41,14.31,14.31,14.31h46.38
				c7.9,0,14.31-6.41,14.31-14.31v-1.38C473,105.41,466.59,99,458.69,99z M458.69,183h-46.38c-7.9,0-14.31,6.41-14.31,14.31v1.38
				c0,7.9,6.41,14.31,14.31,14.31h46.38c7.9,0,14.31-6.41,14.31-14.31v-1.38C473,189.41,466.59,183,458.69,183z M458.69,351h-46.38
				c-7.9,0-14.31,6.41-14.31,14.31v1.38c0,7.9,6.41,14.31,14.31,14.31h46.38c7.9,0,14.31-6.41,14.31-14.31v-1.38
				C473,357.41,466.59,351,458.69,351z M458.69,267h-46.38c-7.9,0-14.31,6.41-14.31,14.31v1.38c0,7.9,6.41,14.31,14.31,14.31h46.38
				c7.9,0,14.31-6.41,14.31-14.31v-1.38C473,273.41,466.59,267,458.69,267z M282.69,398h-1.38c-7.9,0-14.31,6.41-14.31,14.31v46.38
				c0,7.9,6.41,14.31,14.31,14.31h1.38c7.9,0,14.31-6.41,14.31-14.31v-46.38C297,404.41,290.59,398,282.69,398z M114.69,398h-1.38
				c-7.9,0-14.31,6.41-14.31,14.31v46.38c0,7.9,6.41,14.31,14.31,14.31h1.38c7.9,0,14.31-6.41,14.31-14.31v-46.38
				C129,404.41,122.59,398,114.69,398z M198.69,398h-1.38c-7.9,0-14.31,6.41-14.31,14.31v46.38c0,7.9,6.41,14.31,14.31,14.31h1.38
				c7.9,0,14.31-6.41,14.31-14.31v-46.38C213,404.41,206.59,398,198.69,398z M106.25,373.6c4.53,4.57,10.81,7.4,17.75,7.4h232
				c13.81,0,25-11.19,25-25V124c0-6.87-2.77-13.08-7.25-17.6C284.58,195.47,195.42,284.53,106.25,373.6z M366.69,398h-1.38
				c-7.9,0-14.31,6.41-14.31,14.31v46.38c0,7.9,6.41,14.31,14.31,14.31h1.38c7.9,0,14.31-6.41,14.31-14.31v-46.38
				C381,404.41,374.59,398,366.69,398z"/>
		</g>
	</g>
</g>
<g id="Final">
	<g>
		<g>
			<path class="st2" d="M356,381H124c-13.81,0-25-11.19-25-25V124c0-13.81,11.19-25,25-25h232c13.81,0,25,11.19,25,25v232
				C381,369.81,369.81,381,356,381z"/>
		</g>
		<g>
			<path class="st2" d="M114.69,82h-1.38C105.41,82,99,75.59,99,67.69V21.31C99,13.41,105.41,7,113.31,7h1.38
				c7.9,0,14.31,6.41,14.31,14.31v46.38C129,75.59,122.59,82,114.69,82z"/>
			<path class="st2" d="M366.69,82h-1.38c-7.9,0-14.31-6.41-14.31-14.31V21.31C351,13.41,357.41,7,365.31,7h1.38
				c7.9,0,14.31,6.41,14.31,14.31v46.38C381,75.59,374.59,82,366.69,82z"/>
			<path class="st2" d="M282.69,82h-1.38c-7.9,0-14.31-6.41-14.31-14.31V21.31C267,13.41,273.41,7,281.31,7h1.38
				c7.9,0,14.31,6.41,14.31,14.31v46.38C297,75.59,290.59,82,282.69,82z"/>
			<path class="st2" d="M198.69,82h-1.38c-7.9,0-14.31-6.41-14.31-14.31V21.31C183,13.41,189.41,7,197.31,7h1.38
				c7.9,0,14.31,6.41,14.31,14.31v46.38C213,75.59,206.59,82,198.69,82z"/>
		</g>
		<g>
			<path class="st2" d="M114.69,473h-1.38c-7.9,0-14.31-6.41-14.31-14.31v-46.38c0-7.9,6.41-14.31,14.31-14.31h1.38
				c7.9,0,14.31,6.41,14.31,14.31v46.38C129,466.59,122.59,473,114.69,473z"/>
			<path class="st2" d="M366.69,473h-1.38c-7.9,0-14.31-6.41-14.31-14.31v-46.38c0-7.9,6.41-14.31,14.31-14.31h1.38
				c7.9,0,14.31,6.41,14.31,14.31v46.38C381,466.59,374.59,473,366.69,473z"/>
			<path class="st2" d="M282.69,473h-1.38c-7.9,0-14.31-6.41-14.31-14.31v-46.38c0-7.9,6.41-14.31,14.31-14.31h1.38
				c7.9,0,14.31,6.41,14.31,14.31v46.38C297,466.59,290.59,473,282.69,473z"/>
			<path class="st2" d="M198.69,473h-1.38c-7.9,0-14.31-6.41-14.31-14.31v-46.38c0-7.9,6.41-14.31,14.31-14.31h1.38
				c7.9,0,14.31,6.41,14.31,14.31v46.38C213,466.59,206.59,473,198.69,473z"/>
		</g>
		<g>
			<path class="st2" d="M82,365.31v1.38c0,7.9-6.41,14.31-14.31,14.31H21.31C13.41,381,7,374.59,7,366.69v-1.38
				c0-7.9,6.41-14.31,14.31-14.31h46.38C75.59,351,82,357.41,82,365.31z"/>
			<path class="st2" d="M82,113.31v1.38c0,7.9-6.41,14.31-14.31,14.31H21.31C13.41,129,7,122.59,7,114.69v-1.38
				C7,105.41,13.41,99,21.31,99h46.38C75.59,99,82,105.41,82,113.31z"/>
			<path class="st2" d="M82,197.31v1.38c0,7.9-6.41,14.31-14.31,14.31H21.31C13.41,213,7,206.59,7,198.69v-1.38
				c0-7.9,6.41-14.31,14.31-14.31h46.38C75.59,183,82,189.41,82,197.31z"/>
			<path class="st2" d="M82,281.31v1.38c0,7.9-6.41,14.31-14.31,14.31H21.31C13.41,297,7,290.59,7,282.69v-1.38
				c0-7.9,6.41-14.31,14.31-14.31h46.38C75.59,267,82,273.41,82,281.31z"/>
		</g>
		<g>
			<path class="st2" d="M82,365.31v1.38c0,7.9-6.41,14.31-14.31,14.31H21.31C13.41,381,7,374.59,7,366.69v-1.38
				c0-7.9,6.41-14.31,14.31-14.31h46.38C75.59,351,82,357.41,82,365.31z"/>
			<path class="st2" d="M82,113.31v1.38c0,7.9-6.41,14.31-14.31,14.31H21.31C13.41,129,7,122.59,7,114.69v-1.38
				C7,105.41,13.41,99,21.31,99h46.38C75.59,99,82,105.41,82,113.31z"/>
			<path class="st2" d="M82,197.31v1.38c0,7.9-6.41,14.31-14.31,14.31H21.31C13.41,213,7,206.59,7,198.69v-1.38
				c0-7.9,6.41-14.31,14.31-14.31h46.38C75.59,183,82,189.41,82,197.31z"/>
			<path class="st2" d="M82,281.31v1.38c0,7.9-6.41,14.31-14.31,14.31H21.31C13.41,297,7,290.59,7,282.69v-1.38
				c0-7.9,6.41-14.31,14.31-14.31h46.38C75.59,267,82,273.41,82,281.31z"/>
		</g>
		<g>
			<path class="st2" d="M473,365.31v1.38c0,7.9-6.41,14.31-14.31,14.31h-46.38c-7.9,0-14.31-6.41-14.31-14.31v-1.38
				c0-7.9,6.41-14.31,14.31-14.31h46.38C466.59,351,473,357.41,473,365.31z"/>
			<path class="st2" d="M473,113.31v1.38c0,7.9-6.41,14.31-14.31,14.31h-46.38c-7.9,0-14.31-6.41-14.31-14.31v-1.38
				c0-7.9,6.41-14.31,14.31-14.31h46.38C466.59,99,473,105.41,473,113.31z"/>
			<path class="st2" d="M473,197.31v1.38c0,7.9-6.41,14.31-14.31,14.31h-46.38c-7.9,0-14.31-6.41-14.31-14.31v-1.38
				c0-7.9,6.41-14.31,14.31-14.31h46.38C466.59,183,473,189.41,473,197.31z"/>
			<path class="st2" d="M473,281.31v1.38c0,7.9-6.41,14.31-14.31,14.31h-46.38c-7.9,0-14.31-6.41-14.31-14.31v-1.38
				c0-7.9,6.41-14.31,14.31-14.31h46.38C466.59,267,473,273.41,473,281.31z"/>
		</g>
	</g>
	<g>
		<g>
			<path class="st3" d="M458.69,99h-46.38c-7.9,0-14.31,6.41-14.31,14.31v1.38c0,7.9,6.41,14.31,14.31,14.31h46.38
				c7.9,0,14.31-6.41,14.31-14.31v-1.38C473,105.41,466.59,99,458.69,99z M458.69,183h-46.38c-7.9,0-14.31,6.41-14.31,14.31v1.38
				c0,7.9,6.41,14.31,14.31,14.31h46.38c7.9,0,14.31-6.41,14.31-14.31v-1.38C473,189.41,466.59,183,458.69,183z M458.69,351h-46.38
				c-7.9,0-14.31,6.41-14.31,14.31v1.38c0,7.9,6.41,14.31,14.31,14.31h46.38c7.9,0,14.31-6.41,14.31-14.31v-1.38
				C473,357.41,466.59,351,458.69,351z M458.69,267h-46.38c-7.9,0-14.31,6.41-14.31,14.31v1.38c0,7.9,6.41,14.31,14.31,14.31h46.38
				c7.9,0,14.31-6.41,14.31-14.31v-1.38C473,273.41,466.59,267,458.69,267z M282.69,398h-1.38c-7.9,0-14.31,6.41-14.31,14.31v46.38
				c0,7.9,6.41,14.31,14.31,14.31h1.38c7.9,0,14.31-6.41,14.31-14.31v-46.38C297,404.41,290.59,398,282.69,398z M114.69,398h-1.38
				c-7.9,0-14.31,6.41-14.31,14.31v46.38c0,7.9,6.41,14.31,14.31,14.31h1.38c7.9,0,14.31-6.41,14.31-14.31v-46.38
				C129,404.41,122.59,398,114.69,398z M198.69,398h-1.38c-7.9,0-14.31,6.41-14.31,14.31v46.38c0,7.9,6.41,14.31,14.31,14.31h1.38
				c7.9,0,14.31-6.41,14.31-14.31v-46.38C213,404.41,206.59,398,198.69,398z M106.25,373.6c4.53,4.57,10.81,7.4,17.75,7.4h232
				c13.81,0,25-11.19,25-25V124c0-6.87-2.77-13.08-7.25-17.6C284.58,195.47,195.42,284.53,106.25,373.6z M366.69,398h-1.38
				c-7.9,0-14.31,6.41-14.31,14.31v46.38c0,7.9,6.41,14.31,14.31,14.31h1.38c7.9,0,14.31-6.41,14.31-14.31v-46.38
				C381,404.41,374.59,398,366.69,398z"/>
		</g>
	</g>
</g>
</svg>