<svg
  id="Layer_1"
  data-name="Layer 1"
  xmlns="http://www.w3.org/2000/svg"
  viewBox="0 0 373.79 373.79"
>
  <path
    d="M385.36,94.64V385.36H94.64V94.64H385.36m0-41.53H94.64A41.65,41.65,0,0,0,53.11,94.64V385.36a41.65,41.65,0,0,0,41.53,41.53H385.36a41.65,41.65,0,0,0,41.53-41.53V94.64A41.65,41.65,0,0,0,385.36,53.11ZM277,246.66,227.77,310.2a7.36,7.36,0,0,1-11.48.18l-31.24-37.82a9.24,9.24,0,0,0-14.42.22l-49.32,63.45a4.71,4.71,0,0,0,3.72,7.6H355.17a4.71,4.71,0,0,0,3.77-7.54l-67.23-89.51A9.24,9.24,0,0,0,277,246.66Z"
    transform="translate(-53.11 -53.11)"
  />
</svg>