<svg xmlns="http://www.w3.org/2000/svg" viewBox="0 0 113.95 113.95"><defs><style>.cls-1{fill:#14d18c;}</style></defs><g id="Layer_2" data-name="Layer 2"><g id="Layer_1-2" data-name="Layer 1"><path class="cls-1" d="M51.24,36.35c-1.58-9.93,6.2-27.49,12.2-32.18S71.89.91,76.27,1.83s12,6.15,14.66,8.54.15,4.09.15,4.09-6,1.32-7.83,2.07c-7.48,3-15.68,7.24-21.83,19.2"/><path class="cls-1" d="M57,41A16,16,0,1,1,41,57,16,16,0,0,1,57,41m0-6A22,22,0,1,0,79,57,22,22,0,0,0,57,35Z"/><path class="cls-1" d="M67.51,38.33c5.89-8.13,23.81-15,31.37-14.12s8.28,3.67,10.73,7.41,4.11,12.81,4.33,16.41-2.79,3-2.79,3-5.14-3.28-7-4.08c-7.42-3.16-16.2-6-29-1.85"/><path class="cls-1" d="M77.6,51.24c9.93-1.58,27.49,6.2,32.18,12.2s3.26,8.45,2.35,12.83-6.16,12-8.55,14.66-4.09.15-4.09.15-1.31-6-2.07-7.83c-3-7.48-7.24-15.68-19.2-21.83"/><path class="cls-1" d="M75.62,67.51c8.13,5.89,15,23.81,14.12,31.37s-3.67,8.28-7.41,10.73-12.81,4.11-16.41,4.33-3-2.79-3-2.79,3.28-5.14,4.08-7c3.16-7.42,6-16.2,1.85-29"/><path class="cls-1" d="M62.71,77.6c1.58,9.93-6.2,27.49-12.2,32.18s-8.45,3.26-12.82,2.35S25.72,106,23,103.58s-.15-4.09-.15-4.09,5.95-1.31,7.84-2.07c7.48-3,15.67-7.24,21.82-19.2"/><path class="cls-1" d="M46.44,75.62c-5.89,8.13-23.81,15-31.37,14.12S6.79,86.07,4.34,82.33.23,69.52,0,65.92s2.79-3,2.79-3S7.94,66.2,9.8,67c7.42,3.16,16.2,6,29,1.85"/><path class="cls-1" d="M36.35,62.71c-9.93,1.58-27.49-6.2-32.18-12.2S.91,42.06,1.83,37.69,8,25.72,10.37,23s4.09-.15,4.09-.15,1.32,5.95,2.07,7.84c3,7.48,7.24,15.67,19.2,21.82"/><path class="cls-1" d="M38.33,46.44c-8.13-5.89-15-23.81-14.12-31.37s3.67-8.28,7.41-10.73S44.43.23,48,0,51,2.8,51,2.8,47.75,7.94,47,9.8c-3.16,7.42-6,16.2-1.85,29"/></g></g></svg>