<svg id="Layer_1" data-name="Layer 1" xmlns="http://www.w3.org/2000/svg" viewBox="0 0 480 480"><defs><style>.cls-1{fill:none;stroke:#14d18c;stroke-miterlimit:10;stroke-width:10px;}.cls-2{fill:#14d18c;}</style></defs><rect class="cls-1" x="113" y="16" width="254" height="448" rx="16"/><path class="cls-2" d="M339,395H141a16,16,0,0,0-16,16v25a16,16,0,0,0,16,16H339a16,16,0,0,0,16-16V411A16,16,0,0,0,339,395ZM225.75,432.5a2,2,0,0,1-2,2H218.5a2,2,0,0,1-2-2v-18a2,2,0,0,1,2-2h5.25a2,2,0,0,1,2,2Zm20,0a2,2,0,0,1-2,2H238.5a2,2,0,0,1-2-2v-18a2,2,0,0,1,2-2h5.25a2,2,0,0,1,2,2ZM260,427a3.5,3.5,0,1,1,3.5-3.5A3.5,3.5,0,0,1,260,427Z"/><path class="cls-2" d="M339,28H141a16,16,0,0,0-16,16V372a16,16,0,0,0,16,16H339a16,16,0,0,0,16-16V44A16,16,0,0,0,339,28ZM240,368a77,77,0,1,1,77-77A77,77,0,0,1,240,368Zm0-166a77,77,0,1,1,77-77A77,77,0,0,1,240,202Z"/><g id="Layer_2" data-name="Layer 2"><g id="Layer_1-2" data-name="Layer 1-2"><path class="cls-2" d="M233.46,267.48c-1.8-11.33,7.08-31.36,13.92-36.71S257,227.05,262,228.1s13.68,7,16.72,9.74.17,4.67.17,4.67-6.84,1.5-8.93,2.36c-8.53,3.42-17.89,8.26-24.9,21.9"/><path class="cls-2" d="M240,272.78A18.26,18.26,0,1,1,221.78,291,18.26,18.26,0,0,1,240,272.78m0-6.84A25.1,25.1,0,1,0,265.13,291,25.09,25.09,0,0,0,240,265.94Z"/><path class="cls-2" d="M252,269.74c6.72-9.28,27.16-17.11,35.79-16.11s9.44,4.19,12.24,8.45,4.69,14.62,4.94,18.72-3.19,3.42-3.19,3.42-5.86-3.74-8-4.65c-8.46-3.6-18.48-6.84-33.08-2.11"/><path class="cls-2" d="M263.53,284.46c11.33-1.8,31.36,7.08,36.71,13.92S304,308,302.92,313s-7,13.68-9.75,16.72-4.67.17-4.67.17a89.59,89.59,0,0,0-2.36-8.93c-3.42-8.53-8.26-17.89-21.9-24.9"/><path class="cls-2" d="M261.27,303c9.28,6.72,17.12,27.16,16.11,35.79s-4.18,9.44-8.45,12.24-14.61,4.69-18.72,4.94-3.42-3.19-3.42-3.19,3.74-5.86,4.65-8c3.61-8.46,6.85-18.48,2.11-33.08"/><path class="cls-2" d="M246.55,314.53c1.8,11.33-7.07,31.36-13.92,36.71S223,355,218,353.92s-13.66-7-16.76-9.75-.17-4.67-.17-4.67,6.79-1.49,8.94-2.36c8.54-3.42,17.88-8.26,24.89-21.9"/><path class="cls-2" d="M228,312.27c-6.72,9.28-27.16,17.12-35.79,16.11s-9.44-4.18-12.24-8.45-4.68-14.61-5-18.72,3.19-3.42,3.19-3.42,5.87,3.74,8,4.65c8.47,3.61,18.48,6.85,33.08,2.11"/><path class="cls-2" d="M216.48,297.55c-11.33,1.8-31.36-7.07-36.71-13.92S176.05,274,177.1,269s7-13.66,9.74-16.76,4.67-.17,4.67-.17,1.5,6.79,2.36,8.94c3.42,8.54,8.26,17.88,21.9,24.89"/><path class="cls-2" d="M218.74,279c-9.28-6.72-17.11-27.16-16.11-35.79s4.19-9.44,8.45-12.24,14.62-4.68,18.69-5,3.42,3.2,3.42,3.2a86.73,86.73,0,0,0-4.56,8c-3.61,8.47-6.85,18.48-2.11,33.08"/></g></g><g id="Layer_2-2" data-name="Layer 2"><g id="Layer_1-2-2" data-name="Layer 1-2"><path class="cls-2" d="M233.46,101.48c-1.8-11.33,7.08-31.36,13.92-36.71S257,61.05,262,62.1s13.68,7,16.72,9.74.17,4.67.17,4.67S272.07,78,270,78.87c-8.53,3.42-17.89,8.26-24.9,21.9"/><path class="cls-2" d="M240,106.78A18.26,18.26,0,1,1,221.78,125,18.26,18.26,0,0,1,240,106.78m0-6.84A25.1,25.1,0,1,0,265.13,125,25.09,25.09,0,0,0,240,99.94Z"/><path class="cls-2" d="M252,103.74c6.72-9.28,27.16-17.11,35.79-16.11s9.44,4.19,12.24,8.45,4.69,14.62,4.94,18.72-3.19,3.42-3.19,3.42-5.86-3.74-8-4.65c-8.46-3.6-18.48-6.84-33.08-2.11"/><path class="cls-2" d="M263.53,118.46c11.33-1.8,31.36,7.08,36.71,13.92S304,142,302.92,147s-7,13.68-9.75,16.72-4.67.17-4.67.17a89.59,89.59,0,0,0-2.36-8.93c-3.42-8.53-8.26-17.89-21.9-24.9"/><path class="cls-2" d="M261.27,137c9.28,6.72,17.12,27.16,16.11,35.79s-4.18,9.44-8.45,12.24-14.61,4.69-18.72,4.94-3.42-3.19-3.42-3.19,3.74-5.86,4.65-8c3.61-8.46,6.85-18.48,2.11-33.08"/><path class="cls-2" d="M246.55,148.53c1.8,11.33-7.07,31.36-13.92,36.71S223,189,218,187.92s-13.66-7-16.76-9.75-.17-4.67-.17-4.67,6.79-1.49,8.94-2.36c8.54-3.42,17.88-8.26,24.89-21.9"/><path class="cls-2" d="M228,146.27c-6.72,9.28-27.16,17.12-35.79,16.11s-9.44-4.18-12.24-8.45-4.68-14.61-5-18.72,3.19-3.42,3.19-3.42,5.87,3.74,8,4.65c8.47,3.61,18.48,6.85,33.08,2.11"/><path class="cls-2" d="M216.48,131.55c-11.33,1.8-31.36-7.07-36.71-13.92S176.05,108,177.1,103s7-13.66,9.74-16.76,4.67-.17,4.67-.17,1.5,6.79,2.36,8.94c3.42,8.54,8.26,17.88,21.9,24.89"/><path class="cls-2" d="M218.74,113c-9.28-6.72-17.11-27.16-16.11-35.79s4.19-9.44,8.45-12.24S225.7,60.28,229.77,60s3.42,3.2,3.42,3.2a86.73,86.73,0,0,0-4.56,8c-3.61,8.47-6.85,18.48-2.11,33.08"/></g></g></svg>