<svg id="Layer_1" data-name="Layer 1" xmlns="http://www.w3.org/2000/svg" viewBox="0 0 466 466"><defs><style>.cls-1{fill:#14d18c;}</style></defs><path class="cls-1" d="M356,381H124a25,25,0,0,1-25-25V124a25,25,0,0,1,25-25H356a25,25,0,0,1,25,25V356A25,25,0,0,1,356,381Z" transform="translate(-7 -7)"/><path class="cls-1" d="M114.69,82h-1.38A14.31,14.31,0,0,1,99,67.69V21.31A14.31,14.31,0,0,1,113.31,7h1.38A14.31,14.31,0,0,1,129,21.31V67.69A14.31,14.31,0,0,1,114.69,82Z" transform="translate(-7 -7)"/><path class="cls-1" d="M366.69,82h-1.38A14.31,14.31,0,0,1,351,67.69V21.31A14.31,14.31,0,0,1,365.31,7h1.38A14.31,14.31,0,0,1,381,21.31V67.69A14.31,14.31,0,0,1,366.69,82Z" transform="translate(-7 -7)"/><path class="cls-1" d="M282.69,82h-1.38A14.31,14.31,0,0,1,267,67.69V21.31A14.31,14.31,0,0,1,281.31,7h1.38A14.31,14.31,0,0,1,297,21.31V67.69A14.31,14.31,0,0,1,282.69,82Z" transform="translate(-7 -7)"/><path class="cls-1" d="M198.69,82h-1.38A14.31,14.31,0,0,1,183,67.69V21.31A14.31,14.31,0,0,1,197.31,7h1.38A14.31,14.31,0,0,1,213,21.31V67.69A14.31,14.31,0,0,1,198.69,82Z" transform="translate(-7 -7)"/><path class="cls-1" d="M114.69,473h-1.38A14.31,14.31,0,0,1,99,458.69V412.31A14.31,14.31,0,0,1,113.31,398h1.38A14.31,14.31,0,0,1,129,412.31v46.38A14.31,14.31,0,0,1,114.69,473Z" transform="translate(-7 -7)"/><path class="cls-1" d="M366.69,473h-1.38A14.31,14.31,0,0,1,351,458.69V412.31A14.31,14.31,0,0,1,365.31,398h1.38A14.31,14.31,0,0,1,381,412.31v46.38A14.31,14.31,0,0,1,366.69,473Z" transform="translate(-7 -7)"/><path class="cls-1" d="M282.69,473h-1.38A14.31,14.31,0,0,1,267,458.69V412.31A14.31,14.31,0,0,1,281.31,398h1.38A14.31,14.31,0,0,1,297,412.31v46.38A14.31,14.31,0,0,1,282.69,473Z" transform="translate(-7 -7)"/><path class="cls-1" d="M198.69,473h-1.38A14.31,14.31,0,0,1,183,458.69V412.31A14.31,14.31,0,0,1,197.31,398h1.38A14.31,14.31,0,0,1,213,412.31v46.38A14.31,14.31,0,0,1,198.69,473Z" transform="translate(-7 -7)"/><path class="cls-1" d="M82,365.31v1.38A14.31,14.31,0,0,1,67.69,381H21.31A14.31,14.31,0,0,1,7,366.69v-1.38A14.31,14.31,0,0,1,21.31,351H67.69A14.31,14.31,0,0,1,82,365.31Z" transform="translate(-7 -7)"/><path class="cls-1" d="M82,113.31v1.38A14.31,14.31,0,0,1,67.69,129H21.31A14.31,14.31,0,0,1,7,114.69v-1.38A14.31,14.31,0,0,1,21.31,99H67.69A14.31,14.31,0,0,1,82,113.31Z" transform="translate(-7 -7)"/><path class="cls-1" d="M82,197.31v1.38A14.31,14.31,0,0,1,67.69,213H21.31A14.31,14.31,0,0,1,7,198.69v-1.38A14.31,14.31,0,0,1,21.31,183H67.69A14.31,14.31,0,0,1,82,197.31Z" transform="translate(-7 -7)"/><path class="cls-1" d="M82,281.31v1.38A14.31,14.31,0,0,1,67.69,297H21.31A14.31,14.31,0,0,1,7,282.69v-1.38A14.31,14.31,0,0,1,21.31,267H67.69A14.31,14.31,0,0,1,82,281.31Z" transform="translate(-7 -7)"/><path class="cls-1" d="M82,365.31v1.38A14.31,14.31,0,0,1,67.69,381H21.31A14.31,14.31,0,0,1,7,366.69v-1.38A14.31,14.31,0,0,1,21.31,351H67.69A14.31,14.31,0,0,1,82,365.31Z" transform="translate(-7 -7)"/><path class="cls-1" d="M82,113.31v1.38A14.31,14.31,0,0,1,67.69,129H21.31A14.31,14.31,0,0,1,7,114.69v-1.38A14.31,14.31,0,0,1,21.31,99H67.69A14.31,14.31,0,0,1,82,113.31Z" transform="translate(-7 -7)"/><path class="cls-1" d="M82,197.31v1.38A14.31,14.31,0,0,1,67.69,213H21.31A14.31,14.31,0,0,1,7,198.69v-1.38A14.31,14.31,0,0,1,21.31,183H67.69A14.31,14.31,0,0,1,82,197.31Z" transform="translate(-7 -7)"/><path class="cls-1" d="M82,281.31v1.38A14.31,14.31,0,0,1,67.69,297H21.31A14.31,14.31,0,0,1,7,282.69v-1.38A14.31,14.31,0,0,1,21.31,267H67.69A14.31,14.31,0,0,1,82,281.31Z" transform="translate(-7 -7)"/><path class="cls-1" d="M473,365.31v1.38A14.31,14.31,0,0,1,458.69,381H412.31A14.31,14.31,0,0,1,398,366.69v-1.38A14.31,14.31,0,0,1,412.31,351h46.38A14.31,14.31,0,0,1,473,365.31Z" transform="translate(-7 -7)"/><path class="cls-1" d="M473,113.31v1.38A14.31,14.31,0,0,1,458.69,129H412.31A14.31,14.31,0,0,1,398,114.69v-1.38A14.31,14.31,0,0,1,412.31,99h46.38A14.31,14.31,0,0,1,473,113.31Z" transform="translate(-7 -7)"/><path class="cls-1" d="M473,197.31v1.38A14.31,14.31,0,0,1,458.69,213H412.31A14.31,14.31,0,0,1,398,198.69v-1.38A14.31,14.31,0,0,1,412.31,183h46.38A14.31,14.31,0,0,1,473,197.31Z" transform="translate(-7 -7)"/><path class="cls-1" d="M473,281.31v1.38A14.31,14.31,0,0,1,458.69,297H412.31A14.31,14.31,0,0,1,398,282.69v-1.38A14.31,14.31,0,0,1,412.31,267h46.38A14.31,14.31,0,0,1,473,281.31Z" transform="translate(-7 -7)"/></svg>