<svg id="Layer_1" data-name="Layer 1" xmlns="http://www.w3.org/2000/svg" viewBox="0 0 480 480"><defs><style>.cls-1{fill:#14d18c;}</style></defs><path class="cls-1" d="M410.33,114.05a3.8,3.8,0,0,1,.37-.33l-9.56-9.57a16,16,0,0,0-22.63,0L104.15,378.51a16,16,0,0,0,0,22.63l9.57,9.56a3.8,3.8,0,0,1,.33-.37,5.5,5.5,0,0,1,7.78,7.78,3.8,3.8,0,0,1-.37.33l13.47,13.47.33-.37a5.5,5.5,0,0,1,7.78,7.78l-.37.34,20.88,20.87,7.07-7.07-5-4.95L319.82,294.36l4.95,4.95,8.48-8.48-8.45-8.46c-.18-2.67,2.27-3.38,3.51-2.15l7.77,7.78,8.49-8.49-4.95-4.95L448.51,165.67l4.95,5,7.07-7.07-20.87-20.88c-.11.13-.22.25-.34.37a5.5,5.5,0,0,1-7.78-7.78l.37-.33-13.47-13.47a3.8,3.8,0,0,1-.33.37,5.5,5.5,0,0,1-7.78-7.78ZM166.14,454.17a2.59,2.59,0,0,1-5.18,0A2.59,2.59,0,0,1,166.14,454.17Zm11.55-64.35a2,2,0,0,1,0,2.83L159.31,411a2,2,0,0,1-2.83,0l-26.87-26.87a2,2,0,0,1,0-2.83L148,363a2,2,0,0,1,2.83,0ZM206,361.54a2,2,0,0,1,0,2.83l-18.39,18.38a2,2,0,0,1-2.83,0l-26.87-26.87a2,2,0,0,1,0-2.83l18.39-18.38a2,2,0,0,1,2.83,0Zm28.28-28.29a2,2,0,0,1,0,2.83l-18.38,18.39a2,2,0,0,1-2.83,0L186.18,327.6a2,2,0,0,1,0-2.83l18.38-18.39a2,2,0,0,1,2.83,0ZM262.54,305a2,2,0,0,1,0,2.83l-18.38,18.38a2,2,0,0,1-2.83,0l-26.87-26.87a2,2,0,0,1,0-2.82l18.39-18.39a2,2,0,0,1,2.82,0Zm63.64-63.64a2,2,0,0,1,0,2.83L307.8,262.54a2,2,0,0,1-2.83,0L278.1,235.67a2,2,0,0,1,0-2.82l18.39-18.39a2,2,0,0,1,2.82,0Zm28.29-28.28a2,2,0,0,1,0,2.83l-18.39,18.38a2,2,0,0,1-2.83,0l-26.87-26.87a2,2,0,0,1,0-2.83l18.39-18.38a2,2,0,0,1,2.83,0Zm28.28-28.29a2,2,0,0,1,0,2.83L364.37,206a2,2,0,0,1-2.83,0l-26.87-26.87a2,2,0,0,1,0-2.83l18.38-18.39a2,2,0,0,1,2.83,0ZM411,156.48a2,2,0,0,1,0,2.83l-18.39,18.38a2,2,0,0,1-2.83,0L363,150.82a2,2,0,0,1,0-2.83l18.39-18.38a2,2,0,0,1,2.83,0Zm45.72,7.07a2.59,2.59,0,0,1-5.18,0A2.59,2.59,0,0,1,456.76,163.55Z"/><path class="cls-1" d="M330.33,34.05a3.8,3.8,0,0,1,.37-.33l-9.56-9.57a16,16,0,0,0-22.63,0L24.15,298.51a16,16,0,0,0,0,22.63l9.57,9.56a3.8,3.8,0,0,1,.33-.37,5.5,5.5,0,0,1,7.78,7.78,3.8,3.8,0,0,1-.37.33l13.47,13.47.33-.37A5.5,5.5,0,0,1,63,359.32l-.37.34,20.88,20.87,7.07-7.07-5-4.95L239.82,214.36l5,4.95,8.48-8.48-8.45-8.46c-.18-2.67,2.27-3.38,3.51-2.15l7.77,7.78,8.49-8.49-4.95-4.95L368.51,85.67l4.95,5,7.07-7.07L359.66,62.67c-.11.13-.22.25-.34.37a5.5,5.5,0,0,1-7.78-7.78l.37-.33L338.44,41.46a3.8,3.8,0,0,1-.33.37,5.5,5.5,0,0,1-7.78-7.78ZM86.14,374.17a2.59,2.59,0,0,1-5.18,0A2.59,2.59,0,0,1,86.14,374.17Zm11.55-64.35a2,2,0,0,1,0,2.83L79.31,331a2,2,0,0,1-2.83,0L49.61,304.17a2,2,0,0,1,0-2.83L68,283a2,2,0,0,1,2.83,0ZM126,281.54a2,2,0,0,1,0,2.83l-18.39,18.38a2,2,0,0,1-2.83,0L77.89,275.88a2,2,0,0,1,0-2.83l18.39-18.38a2,2,0,0,1,2.83,0Zm28.28-28.29a2,2,0,0,1,0,2.83l-18.38,18.39a2,2,0,0,1-2.83,0L106.18,247.6a2,2,0,0,1,0-2.83l18.38-18.39a2,2,0,0,1,2.83,0ZM182.54,225a2,2,0,0,1,0,2.83l-18.38,18.38a2,2,0,0,1-2.83,0l-26.87-26.87a2,2,0,0,1,0-2.82l18.39-18.39a2,2,0,0,1,2.82,0Zm63.64-63.64a2,2,0,0,1,0,2.83L227.8,182.54a2,2,0,0,1-2.83,0L198.1,155.67a2,2,0,0,1,0-2.82l18.39-18.39a2,2,0,0,1,2.82,0Zm28.29-28.28a2,2,0,0,1,0,2.83l-18.39,18.38a2,2,0,0,1-2.83,0l-26.87-26.87a2,2,0,0,1,0-2.83l18.39-18.38a2,2,0,0,1,2.83,0Zm28.28-28.29a2,2,0,0,1,0,2.83L284.37,126a2,2,0,0,1-2.83,0L254.67,99.11a2,2,0,0,1,0-2.83l18.38-18.39a2,2,0,0,1,2.83,0ZM331,76.48a2,2,0,0,1,0,2.83L312.65,97.69a2,2,0,0,1-2.83,0L283,70.82A2,2,0,0,1,283,68l18.39-18.38a2,2,0,0,1,2.83,0Zm45.72,7.07a2.59,2.59,0,0,1-5.18,0A2.59,2.59,0,0,1,376.76,83.55Z"/></svg>