<svg id="Layer_1" data-name="Layer 1" xmlns="http://www.w3.org/2000/svg" viewBox="0 0 480 480"><defs><style>.cls-1{fill:#14d18c;}</style></defs><path class="cls-1" d="M407.5,56.5H72.5a16,16,0,0,0-16,16v335a16,16,0,0,0,16,16h335a16,16,0,0,0,16-16V72.5A16,16,0,0,0,407.5,56.5ZM245.68,164a3,3,0,0,1,3-3H249a3,3,0,0,1,3,3v9.75a3,3,0,0,1-3,3h-.29a3,3,0,0,1-3-3ZM228,164a3,3,0,0,1,3-3h.29a3,3,0,0,1,3,3v9.75a3,3,0,0,1-3,3H231a3,3,0,0,1-3-3Zm-17.66,0a3,3,0,0,1,3-3h.29a3,3,0,0,1,3,3v9.75a3,3,0,0,1-3,3h-.29a3,3,0,0,1-3-3Zm0,82.23a3,3,0,0,1,3-3h.29a3,3,0,0,1,3,3V256a3,3,0,0,1-3,3h-.29a3,3,0,0,1-3-3ZM191,183.36a3,3,0,0,1,3-3h9.75a3,3,0,0,1,3,3v.29a3,3,0,0,1-3,3H194a3,3,0,0,1-3-3ZM191,201a3,3,0,0,1,3-3h9.75a3,3,0,0,1,3,3v.29a3,3,0,0,1-3,3H194a3,3,0,0,1-3-3Zm0,17.67a3,3,0,0,1,3-3h9.75a3,3,0,0,1,3,3V219a3,3,0,0,1-3,3H194a3,3,0,0,1-3-3Zm0,17.66a3,3,0,0,1,3-3h9.75a3,3,0,0,1,3,3v.29a3,3,0,0,1-3,3H194a3,3,0,0,1-3-3Zm-82.94,58.84v9.57H84a2,2,0,0,1-2-2v-5.57a2,2,0,0,1,2-2ZM77,71a6,6,0,1,1-6,6A6,6,0,0,1,77,71Zm0,338a6,6,0,1,1,6-6A6,6,0,0,1,77,409Zm32.3-45.34H84a2,2,0,0,1-2-2v-6a2,2,0,0,1,2-2h25.3Zm0-22.29H84a2,2,0,0,1-2-2v-6a2,2,0,0,1,2-2h25.3Zm20.15,20.29a2,2,0,0,1-2,2H112.64v-10h14.81a2,2,0,0,1,2,2Zm0-22.29a2,2,0,0,1-2,2H112.64v-10h14.81a2,2,0,0,1,2,2ZM257,384a3,3,0,0,1-3,3H226a3,3,0,0,1-3-3V356a3,3,0,0,1,3-3h28a3,3,0,0,1,3,3Zm9-81.23a2,2,0,0,1-2,2H111.25v-9.57H264a2,2,0,0,1,2,2ZM228,256v-9.75a3,3,0,0,1,3-3h.29a3,3,0,0,1,3,3V256a3,3,0,0,1-3,3H231A3,3,0,0,1,228,256Zm17.67,0v-9.75a3,3,0,0,1,3-3H249a3,3,0,0,1,3,3V256a3,3,0,0,1-3,3h-.29A3,3,0,0,1,245.68,256Zm24,0a3,3,0,0,1-3,3h-.29a3,3,0,0,1-3-3v-9.75a3,3,0,0,1,3-3h.29a3,3,0,0,1,3,3Zm0-21.6a5.25,5.25,0,0,1-5.26,5.26H215.61a5.25,5.25,0,0,1-5.26-5.26V185.61a5.25,5.25,0,0,1,5.26-5.26h48.78a5.25,5.25,0,0,1,5.26,5.26Zm0-60.63a3,3,0,0,1-3,3h-.29a3,3,0,0,1-3-3V164a3,3,0,0,1,3-3h.29a3,3,0,0,1,3,3ZM289,236.64a3,3,0,0,1-3,3h-9.75a3,3,0,0,1-3-3v-.29a3,3,0,0,1,3-3H286a3,3,0,0,1,3,3ZM289,219a3,3,0,0,1-3,3h-9.75a3,3,0,0,1-3-3v-.29a3,3,0,0,1,3-3H286a3,3,0,0,1,3,3Zm0-17.67a3,3,0,0,1-3,3h-9.75a3,3,0,0,1-3-3V201a3,3,0,0,1,3-3H286a3,3,0,0,1,3,3Zm0-17.66a3,3,0,0,1-3,3h-9.75a3,3,0,0,1-3-3v-.29a3,3,0,0,1,3-3H286a3,3,0,0,1,3,3Zm44.71-66.1a.5.5,0,0,1-.5.5h-.6V302h.6a.5.5,0,0,1,.5.5v2.3a.5.5,0,0,1-.5.5H326.5a.5.5,0,0,1-.5-.5v-2.3a.5.5,0,0,1,.5-.5h.6V118.05h-.6a.5.5,0,0,1-.5-.5v-2.3a.5.5,0,0,1,.5-.5h6.71a.5.5,0,0,1,.5.5Zm11,0a.5.5,0,0,1-.5.5h-.6V302h.6a.5.5,0,0,1,.5.5v2.3a.5.5,0,0,1-.5.5h-6.71a.5.5,0,0,1-.5-.5v-2.3a.5.5,0,0,1,.5-.5h.6V118.05h-.6a.5.5,0,0,1-.5-.5v-2.3a.5.5,0,0,1,.5-.5h6.71a.5.5,0,0,1,.5.5Zm11,0a.5.5,0,0,1-.5.5h-.6V302h.6a.5.5,0,0,1,.5.5v2.3a.5.5,0,0,1-.5.5h-6.71a.5.5,0,0,1-.5-.5v-2.3a.5.5,0,0,1,.5-.5h.6V118.05h-.6a.5.5,0,0,1-.5-.5v-2.3a.5.5,0,0,1,.5-.5h6.71a.5.5,0,0,1,.5.5Zm11,0a.5.5,0,0,1-.5.5h-.6V302h.6a.5.5,0,0,1,.5.5v2.3a.5.5,0,0,1-.5.5h-6.71a.5.5,0,0,1-.5-.5v-2.3a.5.5,0,0,1,.5-.5h.61V118.05h-.61a.5.5,0,0,1-.5-.5v-2.3a.5.5,0,0,1,.5-.5h6.71a.5.5,0,0,1,.5.5ZM403,409a6,6,0,1,1,6-6A6,6,0,0,1,403,409Zm0-326a6,6,0,1,1,6-6A6,6,0,0,1,403,83Z"/></svg>