<svg id="Layer_1" data-name="Layer 1" xmlns="http://www.w3.org/2000/svg" viewBox="0 0 480 480"><defs><style>.cls-1{fill:#14d18c;}</style></defs><path class="cls-1" d="M185.3,213.19a30.89,30.89,0,0,0-8.86-3.37c8.62-16.51,20-22.41,30.46-26.6,2.57-1.05,11-2.9,11-2.9s3.52-2.39-.21-5.74-14.43-10.7-20.58-12-9.59-3.3-18,3.28c-8.26,6.46-18.93,30.33-17.22,44.39a30.55,30.55,0,0,0-8.57,3.84c-5.64-17.76-1.69-30,2.71-40.32,1.06-2.62,5.62-9.83,5.62-9.83s.8-4.26-4.21-3.93-17.75,2.65-23,6.09-9.17,4.45-10.4,15.07c-1.22,10.42,8.06,34.85,19.21,43.56a30.84,30.84,0,0,0-3.38,8.82c-16.52-8.62-22.43-20-26.62-30.46-1-2.65-2.9-11-2.9-11s-2.42-3.61-5.74.21-10.7,14.49-12,20.62-3.3,9.58,3.28,18c6.46,8.27,30.31,18.93,44.37,17.23a30.74,30.74,0,0,0,3.86,8.64c-17.76,5.64-30,1.69-40.32-2.72-2.62-1.12-9.85-5.73-9.85-5.73s-4.24-.84-3.91,4.22,2.65,17.78,6.09,23,4.45,9.17,15.07,10.41c10.4,1.21,34.78-8,43.52-19.16a30.66,30.66,0,0,0,8.82,3.38c-8.61,16.48-20,22.38-30.42,26.56-2.65,1.07-11,2.91-11,2.91s-3.61,2.34.21,5.74,14.49,10.73,20.62,12,9.58,3.29,18-3.3c8.25-6.45,18.89-30.23,17.24-44.3a30.48,30.48,0,0,0,8.64-3.87c5.61,17.73,1.67,29.94-2.73,40.27-1.12,2.61-5.73,9.83-5.73,9.83s-.84,4.22,4.22,3.91,17.78-2.64,23-6.08,9.17-4.45,10.41-15.06c1.21-10.4-8-34.75-19.13-43.51a30.72,30.72,0,0,0,3.37-8.85c16.46,8.61,22.37,20,26.54,30.42,1.07,2.57,2.91,11,2.91,11s2.38,3.52,5.74-.21,10.73-14.43,12-20.58,3.29-9.59-3.3-18c-6.45-8.25-30.25-18.9-44.32-17.23a30.79,30.79,0,0,0-3.88-8.64c17.74-5.63,30-1.68,40.3,2.72,2.61,1.13,9.83,5.73,9.83,5.73s4.22.84,3.91-4.21-2.64-17.79-6.08-23-4.45-9.17-15.06-10.4C218.43,192.8,194,202.06,185.3,213.19ZM170,262.51A22.47,22.47,0,1,1,192.51,240,22.47,22.47,0,0,1,170,262.51Z"/><rect class="cls-1" x="342" y="166.71" width="8" height="19" rx="2"/><rect class="cls-1" x="384" y="166.71" width="8" height="19" rx="2"/><rect class="cls-1" x="363" y="186.71" width="8" height="19" rx="2"/><path class="cls-1" d="M436,116.71H44a16,16,0,0,0-16,16V347.29a16,16,0,0,0,16,16H436a16,16,0,0,0,16-16V132.71A16,16,0,0,0,436,116.71ZM170,332a92,92,0,1,1,92-92A92,92,0,0,1,170,332Zm210-16a4,4,0,0,1-4,4H358a4,4,0,0,1-4-4V267a4,4,0,0,1,4-4h18a4,4,0,0,1,4,4Zm42-114.29a16,16,0,0,1-16,16H328a16,16,0,0,1-16-16v-29a16,16,0,0,1,16-16h78a16,16,0,0,1,16,16Z"/><circle class="cls-1" cx="367" cy="280" r="4"/><path class="cls-1" d="M375,266H359a2,2,0,0,0-2,2v47a2,2,0,0,0,2,2h16a2,2,0,0,0,2-2V268A2,2,0,0,0,375,266Zm-7,41a1,1,0,0,1-2,0V297a1,1,0,0,1,2,0Zm-1-21a6,6,0,1,1,6-6A6,6,0,0,1,367,286Z"/></svg>